<mxfile host="app.diagrams.net" modified="2024-07-12T03:43:01.833Z" agent="Mozilla/5.0 (Windows NT 10.0; Win64; x64) AppleWebKit/537.36 (KHTML, like Gecko) Chrome/126.0.0.0 Safari/537.36" version="24.6.5" etag="nBRpCt_YZh5IXU-EG1wi" type="github">
  <diagram name="Page-1" id="JO7RKg-xE_2j4zBDTPqt">
    <mxGraphModel>
      <root>
        <mxCell id="0" />
        <mxCell id="1" parent="0" />
      </root>
    </mxGraphModel>
  </diagram>
</mxfile>
